<svg width="9" height="12" viewBox="0 0 9 12" fill="none" xmlns="http://www.w3.org/2000/svg">
<path d="M8.46314 5.49133C8.89858 5.49133 8.99906 5.64005 8.99906 6.04046V8.21411C9.01089 8.72611 8.91074 9.23432 8.70595 9.7015C8.50116 10.1687 8.19693 10.583 7.81557 10.914C6.86842 11.6868 5.67421 12.0702 4.46604 11.9894C1.57428 11.9894 0 10.3992 0 7.7565V4.21002C0 1.60164 1.6301 0 4.46604 0C6.69906 0 8.15052 0.903784 8.7646 2.71135C8.79895 2.77926 8.81737 2.85445 8.81839 2.93094C8.81942 3.00742 8.80302 3.0831 8.7705 3.15196C8.73798 3.22081 8.69025 3.28095 8.63108 3.32759C8.57191 3.37423 8.50294 3.40609 8.42965 3.42064L7.55877 3.72953C7.17916 3.86681 7.02284 3.78673 6.88886 3.38632C6.70391 2.89766 6.36527 2.48613 5.92647 2.21678C5.48768 1.94743 4.97378 1.83564 4.46604 1.89908C2.82477 1.89908 1.93157 2.71134 1.93157 4.18714V7.82514C1.93157 9.32382 2.83593 10.1132 4.46604 10.1132C6.09614 10.1132 7.101 9.3467 7.101 8.22555V7.37897H4.67818C4.27623 7.37897 4.13108 7.21881 4.13108 6.8184V6.04046C4.13108 5.64005 4.27623 5.49133 4.67818 5.49133H8.46314Z" fill="#4A5D69"/>
</svg>
