<svg width="95" height="18" viewBox="0 0 95 18" fill="none" xmlns="http://www.w3.org/2000/svg">
<path d="M0 0.899683H3.37767V14.2133H0V0.899683ZM4.71748 9.18642C4.71748 5.89368 6.78911 3.92901 9.98664 3.92901C13.1842 3.92901 15.2558 5.89368 15.2558 9.18642C15.2558 12.4792 13.2292 14.4548 9.98664 14.4548C6.74408 14.4548 4.71748 12.534 4.71748 9.18642ZM11.8669 9.18642C11.8669 7.37541 11.135 6.31076 9.98664 6.31076C8.83823 6.31076 8.11767 7.40834 8.11767 9.18642C8.11767 10.9645 8.82697 12.0401 9.98664 12.0401C11.1463 12.0401 11.8669 11.0304 11.8669 9.1974V9.18642ZM16.5281 14.8609H19.7706C19.9249 15.1951 20.1858 15.4718 20.5145 15.6498C20.8431 15.8278 21.222 15.8976 21.5946 15.8487C22.8781 15.8487 23.5536 15.1682 23.5536 14.1804V12.3365H23.4861C23.2169 12.9016 22.7803 13.3752 22.2324 13.696C21.6845 14.0169 21.0506 14.1703 20.4124 14.1365C17.9467 14.1365 16.3141 12.3036 16.3141 9.15349C16.3141 6.00344 17.8679 4.01681 20.4574 4.01681C21.1156 3.99166 21.766 4.1632 22.3213 4.50846C22.8767 4.85371 23.3106 5.35618 23.5649 5.94855V4.1156H26.9425V14.1036C26.9425 16.5073 24.7696 18 21.5608 18C18.5772 18 16.7195 16.6939 16.5281 14.8719V14.8609ZM23.5649 9.17545C23.5649 7.57298 22.8105 6.5632 21.6171 6.5632C20.4236 6.5632 19.6918 7.562 19.6918 9.17545C19.6918 10.7889 20.4124 11.6999 21.6171 11.6999C22.8218 11.6999 23.5649 10.8108 23.5649 9.18642V9.17545ZM28.2148 9.17545C28.2148 5.8827 30.2864 3.91803 33.484 3.91803C36.6815 3.91803 38.7644 5.8827 38.7644 9.17545C38.7644 12.4682 36.7378 14.4438 33.484 14.4438C30.2301 14.4438 28.2148 12.534 28.2148 9.18642V9.17545ZM35.3642 9.17545C35.3642 7.36444 34.6324 6.29978 33.484 6.29978C32.3356 6.29978 31.6713 7.40834 31.6713 9.1974C31.6713 10.9865 32.3806 12.0511 33.529 12.0511C34.6774 12.0511 35.3642 11.0304 35.3642 9.1974V9.17545ZM40.0479 1.72287C40.039 1.39042 40.1316 1.06289 40.314 0.781808C40.4963 0.500724 40.7601 0.278742 41.072 0.144003C41.3839 0.00926364 41.7298 -0.0321651 42.0659 0.024968C42.4019 0.082101 42.713 0.235223 42.9597 0.464923C43.2064 0.694623 43.3776 0.990558 43.4516 1.31521C43.5255 1.63986 43.4989 1.97861 43.3752 2.28852C43.2514 2.59843 43.0361 2.86553 42.7564 3.05598C42.4767 3.24642 42.1454 3.35163 41.8043 3.35827C41.5782 3.37341 41.3513 3.34281 41.1379 3.26839C40.9245 3.19397 40.7292 3.07734 40.5643 2.92582C40.3994 2.77431 40.2683 2.59118 40.1795 2.38794C40.0906 2.1847 40.0458 1.96574 40.0479 1.74482V1.72287ZM40.0479 4.13755H43.4256V14.2133H40.0479V4.13755ZM55.6865 9.17545C55.6865 12.4682 54.1891 14.3451 51.622 14.3451C50.9638 14.3862 50.3085 14.2294 49.7446 13.8957C49.1808 13.562 48.7357 13.0675 48.4695 12.4792H48.402V17.4402H45.0243V4.1156H48.402V5.91563H48.4695C48.7233 5.31757 49.16 4.81025 49.72 4.46265C50.28 4.11505 50.9363 3.94405 51.5995 3.97291C54.1891 4.01681 55.7315 5.90465 55.7315 9.1974L55.6865 9.17545ZM52.3088 9.17545C52.3088 7.57298 51.5545 6.55223 50.3723 6.55223C49.1901 6.55223 48.4358 7.58395 48.4245 9.17545C48.4133 10.7669 49.1901 11.7877 50.3723 11.7877C51.5545 11.7877 52.3088 10.7889 52.3088 9.1974V9.17545ZM61.4848 3.90706C64.2883 3.90706 65.9884 5.2022 66.0672 7.27663H62.9935C62.9935 6.5632 62.3855 6.11319 61.4511 6.11319C60.5166 6.11319 60.1 6.46442 60.1 6.98028C60.1 7.49615 60.4715 7.66078 61.2259 7.81444L63.3876 8.2425C65.448 8.67056 66.3262 9.48277 66.3262 11.0084C66.3262 13.0938 64.3784 14.4329 61.5074 14.4329C58.6363 14.4329 56.7561 13.0938 56.6097 11.0413H59.8636C59.9649 11.7877 60.5729 12.2267 61.5637 12.2267C62.5544 12.2267 63.0048 11.9084 63.0048 11.3816C63.0048 10.8547 62.6895 10.745 61.8789 10.5803L59.9311 10.1742C57.9158 9.76814 56.8574 8.72544 56.8574 7.18882C56.88 5.21318 58.6926 3.92901 61.4848 3.92901V3.90706ZM77.5963 14.1914H74.3425V12.3145H74.2749C74.0961 12.9447 73.7015 13.4962 73.1567 13.8776C72.6119 14.2589 71.9497 14.4471 71.2801 14.4109C70.7669 14.4393 70.2535 14.3601 69.7744 14.1784C69.2954 13.9968 68.8619 13.7171 68.5033 13.3581C68.1447 12.9991 67.8692 12.5693 67.6957 12.0977C67.5221 11.6261 67.4544 11.1236 67.4971 10.6243V4.1156H70.8748V9.86692C70.8748 11.0633 71.5053 11.6999 72.5523 11.6999C72.7979 11.7004 73.0407 11.6497 73.2645 11.5512C73.4883 11.4528 73.6879 11.3088 73.8499 11.129C74.012 10.9492 74.1328 10.7377 74.2041 10.5086C74.2755 10.2796 74.2958 10.0384 74.2637 9.80107V4.1156H77.6414L77.5963 14.1914ZM79.2289 4.1156H82.4939V6.05831H82.5615C82.7407 5.43651 83.1264 4.8902 83.6581 4.5049C84.1899 4.1196 84.8376 3.91707 85.5001 3.92901C86.174 3.8764 86.8435 4.07302 87.3755 4.47977C87.9075 4.88651 88.2629 5.47358 88.3711 6.12417H88.4386C88.6429 5.46666 89.0658 4.89408 89.6406 4.49664C90.2154 4.09921 90.9096 3.89952 91.6137 3.92901C92.073 3.91397 92.5304 3.9933 92.9563 4.16186C93.3821 4.33042 93.7668 4.58444 94.0854 4.9074C94.4039 5.23037 94.6492 5.61506 94.8053 6.03647C94.9613 6.45789 95.0247 6.9066 94.9913 7.35346V14.2133H91.6137V8.23152C91.6137 7.13394 91.107 6.62906 90.1612 6.62906C89.9503 6.62732 89.7415 6.66969 89.5488 6.75332C89.3562 6.83695 89.1841 6.9599 89.0443 7.11385C88.9046 7.26781 88.8003 7.4492 88.7385 7.6458C88.6768 7.84239 88.659 8.04961 88.6863 8.25348V14.2133H85.4775V8.18762C85.4775 7.17785 84.9709 6.62906 84.0477 6.62906C83.8344 6.62912 83.6235 6.67327 83.429 6.7586C83.2345 6.84392 83.0608 6.96848 82.9193 7.12406C82.7778 7.27964 82.6717 7.4627 82.6081 7.66117C82.5445 7.85963 82.5248 8.06899 82.5502 8.27543V14.2133H79.1726L79.2289 4.1156Z" fill="#4A5D69"/>
</svg>
