<svg width="8" height="11" viewBox="0 0 8 11" fill="none" xmlns="http://www.w3.org/2000/svg">
<path d="M4.49162 0C5.4221 0 6.31447 0.361733 6.97242 1.00562C7.63037 1.64951 8 2.5228 8 3.4334C8 4.34399 7.63037 5.21729 6.97242 5.86118C6.31447 6.50507 5.4221 6.8668 4.49162 6.8668H1.13966V10.6829C1.13966 10.9235 1.0838 11 0.849165 11H0.324024C0.0893866 11 0 10.9235 0 10.6829V0.317098C0 0.0765417 0.0893866 0 0.324024 0H4.49162ZM4.39106 5.78429C4.71093 5.78429 5.02767 5.72264 5.32319 5.60285C5.61871 5.48305 5.88722 5.30747 6.1134 5.08612C6.33958 4.86478 6.519 4.602 6.6414 4.3128C6.76381 4.0236 6.82682 3.71363 6.82682 3.4006C6.82682 3.08756 6.76381 2.7776 6.6414 2.48839C6.519 2.19919 6.33958 1.93642 6.1134 1.71507C5.88722 1.49372 5.61871 1.31814 5.32319 1.19835C5.02767 1.07856 4.71093 1.0169 4.39106 1.0169H1.03911V5.78429H4.39106Z" fill="#4A5D69"/>
</svg>
