<svg width="9" height="11" viewBox="0 0 9 11" fill="none" xmlns="http://www.w3.org/2000/svg">
<path d="M4.469 0.0227499C5.36801 -0.0662149 6.27504 0.107212 7.05538 0.517271C7.83573 0.927331 8.44775 1.55215 8.80058 2.29893C8.89373 2.46599 8.80058 2.60173 8.61428 2.68526L8.10194 2.89408C7.89234 2.96717 7.81083 2.95673 7.68275 2.75835C7.41895 2.20411 6.9654 1.73948 6.38767 1.43165C5.80994 1.12383 5.13799 0.988761 4.469 1.04599C2.50116 1.04599 1.42991 1.74555 1.42991 2.99849C1.41849 3.38141 1.56191 3.75511 1.8337 4.05064C2.10549 4.34617 2.4873 4.54357 2.9087 4.60644C3.53496 4.78958 4.1843 4.90182 4.84161 4.94056C5.6373 4.97861 6.42221 5.12289 7.17042 5.36865C7.74402 5.53139 8.23769 5.8662 8.56847 6.31682C8.89925 6.76744 9.047 7.30643 8.98688 7.84321C8.98688 9.79571 7.4033 10.9756 4.49229 10.9756C3.53748 11.0735 2.57406 10.8751 1.76258 10.4134C0.951088 9.95177 0.340525 9.25469 0.0326184 8.43836C0.0120745 8.40114 0.000961443 8.36031 5.96461e-05 8.31879C-0.000842151 8.27727 0.0084915 8.23609 0.0274037 8.19818C0.0463158 8.16027 0.0743322 8.12658 0.109453 8.09951C0.144575 8.07244 0.185938 8.05266 0.230574 8.04159L0.742905 7.87453C0.783262 7.85975 0.826612 7.85265 0.870191 7.8537C0.91377 7.85474 0.956626 7.8639 0.996046 7.88059C1.03547 7.89728 1.07058 7.92114 1.09917 7.95066C1.12775 7.98017 1.14918 8.0147 1.16209 8.05203C1.42256 8.64188 1.88576 9.14202 2.48454 9.47994C3.08331 9.81787 3.78654 9.97601 4.49229 9.93145C6.69301 9.93145 7.7759 9.24233 7.7759 7.84321C7.7964 7.47543 7.67074 7.11305 7.42128 6.82053C7.17183 6.52802 6.81475 6.32433 6.41355 6.24571C5.81106 6.08455 5.18979 5.98645 4.56215 5.95335L3.3046 5.80717C2.91104 5.73226 2.52232 5.63815 2.14019 5.52526C1.76274 5.42303 1.41086 5.2564 1.10388 5.03453C0.795016 4.78371 0.551462 4.47504 0.39048 4.1304C0.229499 3.78576 0.155028 3.41359 0.17235 3.04026C0.253858 1.21305 1.77923 0.0227499 4.469 0.0227499Z" fill="#4A5D69"/>
</svg>
