<svg width="102" height="20" viewBox="0 0 102 20" fill="none" xmlns="http://www.w3.org/2000/svg">
<path d="M0 1.00907H3.60879V15.7483H0V1.00907ZM5.0478 10.2041C5.0478 6.55329 7.29626 4.36508 10.669 4.36508C14.0417 4.36508 16.2901 6.55329 16.2901 10.2041C16.2901 13.8549 14.1203 16.0658 10.669 16.0658C7.21757 16.0658 5.0478 13.9342 5.0478 10.2041ZM12.7151 10.2041C12.7151 8.19728 11.9393 7.01814 10.7027 7.01814C9.46603 7.01814 8.70155 8.15193 8.70155 10.2041C8.70155 12.2562 9.46603 13.3787 10.7027 13.3787C11.9393 13.3787 12.7375 12.2562 12.7375 10.2154L12.7151 10.2041ZM17.7291 16.5079H21.2142C21.3729 16.8863 21.65 17.202 22.0032 17.4067C22.3564 17.6114 22.7663 17.694 23.1704 17.6417C24.5532 17.6417 25.2727 16.8934 25.2727 15.7823V13.7415H25.284C24.9862 14.377 24.5046 14.9066 23.9026 15.2608C23.3006 15.6149 22.6063 15.777 21.9113 15.7256C19.2693 15.7256 17.5155 13.6961 17.5155 10.2041C17.5155 6.71202 19.1906 4.53515 22.0124 4.53515C22.7253 4.49668 23.4325 4.68211 24.0366 5.06589C24.6406 5.44967 25.1118 6.0129 25.3851 6.678H25.284V4.62585H28.859V15.6689C28.859 18.3333 26.5206 20 23.0805 20C19.9551 19.9887 17.954 18.5488 17.7516 16.5193L17.7291 16.5079ZM25.284 10.2041C25.284 8.42404 24.4745 7.30159 23.1929 7.30159C21.9113 7.30159 21.1243 8.43537 21.1243 10.2041C21.1243 11.9728 21.9 13.0159 23.1929 13.0159C24.4858 13.0159 25.284 12.0522 25.284 10.2041ZM30.2868 10.2041C30.2868 6.55329 32.5353 4.36508 35.9079 4.36508C39.2806 4.36508 41.5291 6.55329 41.5291 10.2041C41.5291 13.8549 39.3481 16.0658 35.9079 16.0658C32.4678 16.0658 30.3093 13.9342 30.3093 10.2041H30.2868ZM37.954 10.2041C37.954 8.19728 37.1671 7.01814 35.9417 7.01814C34.7163 7.01814 33.9405 8.15193 33.9405 10.2041C33.9405 12.2562 34.705 13.3787 35.9417 13.3787C37.1783 13.3787 37.9765 12.2562 37.9765 10.2154L37.954 10.2041ZM42.9906 1.93878C42.9749 1.56805 43.0695 1.20106 43.2624 0.885025C43.4552 0.568989 43.7373 0.318356 44.0725 0.165375C44.4078 0.0123946 44.7807 -0.0359372 45.1434 0.026593C45.506 0.0891233 45.8419 0.259658 46.1077 0.516258C46.3734 0.772859 46.557 1.10379 46.6348 1.46647C46.7125 1.82916 46.6809 2.20701 46.544 2.55142C46.407 2.89583 46.1711 3.19105 45.8664 3.39909C45.5617 3.60713 45.2023 3.71848 44.8343 3.71882C44.5992 3.72485 44.3652 3.68371 44.146 3.5978C43.9267 3.5119 43.7266 3.38293 43.5571 3.21838C43.3877 3.05384 43.2524 2.857 43.159 2.63928C43.0656 2.42157 43.016 2.18731 43.0131 1.95011L42.9906 1.93878ZM42.9906 4.61451H46.6444V15.7937H43.0468L42.9906 4.61451ZM59.7866 10.2041C59.7866 13.8435 58.1677 15.9524 55.4134 15.9524C54.7082 15.9962 54.0067 15.8208 53.4035 15.4498C52.8004 15.0787 52.3247 14.5299 52.0407 13.8776H51.9732V19.3878H48.3644V4.64853H51.9507V6.64399H52.0182C52.2925 5.97875 52.7635 5.41498 53.3671 5.0295C53.9706 4.64401 54.6773 4.45555 55.3909 4.4898C58.2239 4.46712 59.8541 6.56463 59.8541 10.2154L59.7866 10.2041ZM56.1104 10.2041C56.1104 8.43537 55.2897 7.29025 54.0193 7.29025C52.7489 7.29025 51.9507 8.42404 51.9395 10.2041C51.9282 11.9841 52.7489 13.1066 54.0193 13.1066C55.2897 13.1066 56.1778 12.0522 56.1778 10.2154L56.1104 10.2041ZM65.9474 4.35374C68.9716 4.35374 70.8491 5.79365 70.8716 8.10658H67.5776C67.5776 7.30159 66.9143 6.80272 65.9249 6.80272C64.9356 6.80272 64.4634 7.18821 64.4634 7.76644C64.4634 8.34467 64.8794 8.52608 65.7113 8.69615L68.0272 9.17233C70.2757 9.64853 71.1751 10.5556 71.1751 12.2449C71.1751 14.5125 69.0953 16.0544 66.0036 16.0544C62.912 16.0544 60.8996 14.5578 60.7535 12.2789H64.2498C64.351 13.1066 65.0031 13.5941 66.0598 13.5941C67.1166 13.5941 67.6113 13.254 67.6113 12.6531C67.6113 12.0522 67.274 11.9501 66.4083 11.7687L64.3173 11.3265C62.1475 10.8617 61.012 9.71655 61.012 8.00454C61.0795 5.78231 62.9682 4.36508 66.0149 4.36508L65.9474 4.35374ZM83.2606 15.7823H79.7642V13.6848H79.6968C79.501 14.3844 79.0748 14.9959 78.4883 15.4184C77.9017 15.8409 77.1899 16.0493 76.4702 16.0091C75.9268 16.0269 75.3859 15.9287 74.8828 15.7208C74.3797 15.5129 73.9259 15.2001 73.5511 14.8029C73.1764 14.4057 72.8892 13.9331 72.7083 13.416C72.5274 12.8989 72.457 12.3492 72.5017 11.8027V4.62585H76.1105V11.0204C76.1105 12.3356 76.7963 13.0499 77.9205 13.0499C78.1842 13.0479 78.4445 12.9888 78.6837 12.8767C78.9229 12.7646 79.1354 12.602 79.307 12.4C79.4786 12.198 79.6052 11.9611 79.6782 11.7055C79.7513 11.4499 79.7691 11.1815 79.7305 10.9184V4.62585H83.328L83.2606 15.7823ZM85.0031 4.61451H88.5107V6.76871H88.5894C88.7832 6.07862 89.1985 5.47281 89.7701 5.04609C90.3417 4.61937 91.0375 4.39582 91.7485 4.41043C92.4623 4.34784 93.1736 4.55602 93.7433 4.99425C94.313 5.43248 94.7001 6.06925 94.8289 6.78004H94.9863C95.211 6.06545 95.6634 5.44573 96.2734 5.0172C96.8833 4.58868 97.6165 4.37537 98.359 4.41043C98.8525 4.39149 99.3444 4.47786 99.8026 4.6639C100.261 4.84993 100.675 5.13144 101.017 5.48998C101.36 5.84853 101.624 6.27604 101.792 6.74453C101.959 7.21302 102.027 7.71194 101.99 8.20862V15.7937H98.359V9.13832C98.359 8.00454 97.8306 7.36961 96.8076 7.36961C96.5807 7.36586 96.3556 7.41163 96.1479 7.50379C95.9402 7.59595 95.7547 7.73232 95.6041 7.90355C95.4536 8.07478 95.3415 8.27682 95.2756 8.49582C95.2097 8.71482 95.1916 8.9456 95.2224 9.17233V15.7937H91.7822V9.10431C91.7822 7.97052 91.2314 7.36961 90.2421 7.36961C90.0128 7.36777 89.7858 7.41542 89.5762 7.50935C89.3667 7.60328 89.1796 7.74132 89.0273 7.9142C88.875 8.08709 88.7612 8.29083 88.6934 8.51174C88.6257 8.73264 88.6055 8.96561 88.6344 9.19501V15.7937H85.0256L85.0031 4.61451Z" fill="#4A5D69"/>
</svg>
