<svg width="10" height="11" viewBox="0 0 10 11" fill="none" xmlns="http://www.w3.org/2000/svg">
<path d="M9.68201 0.00188702C9.92324 0.00188702 10 0.0784156 10 0.318931V10.683C10 10.9235 9.92324 11 9.68201 11H9.22149C8.99122 11 8.91447 10.9235 8.91447 10.683V4.37489C8.91425 3.45705 8.97653 2.54026 9.10087 1.63083H9.03508C8.69252 2.46247 8.29319 3.26972 7.83991 4.04692L5.48245 8.19034C5.45362 8.26222 5.4036 8.32369 5.339 8.36663C5.27439 8.40957 5.19824 8.43197 5.12061 8.43086H4.81359C4.73473 8.43123 4.65746 8.40868 4.59125 8.36597C4.52504 8.32325 4.47276 8.26222 4.44079 8.19034L2.05045 4.00319C1.62592 3.2371 1.2594 2.44045 0.953958 1.6199H0.888154C1.00049 2.53769 1.05908 3.46124 1.0636 4.38583V10.683C1.0636 10.9235 0.98685 11 0.745622 11H0.317991C0.0767637 11 0 10.9235 0 10.683V0.318931C0 0.0784156 0.0767637 0.00188702 0.317991 0.00188702H0.712729C0.802929 -0.00649447 0.89351 0.0131804 0.972044 0.0582044C1.05058 0.103228 1.11321 0.171392 1.15132 0.253334L4.98903 7.05336L8.80481 0.318931C8.92543 0.0893482 8.99122 0.0565488 9.23244 0.0565488L9.68201 0.00188702Z" fill="#4A5D69"/>
</svg>
