<svg width="9" height="11" viewBox="0 0 9 11" fill="none" xmlns="http://www.w3.org/2000/svg">
<path d="M1.21653 7.11198C1.2667 7.86942 1.63386 8.58092 2.24301 9.10115C2.85216 9.62138 3.65733 9.91108 4.49409 9.91108C5.33084 9.91108 6.13604 9.62138 6.74519 9.10115C7.35434 8.58092 7.7215 7.86942 7.77166 7.11198V0.310614C7.77166 0.0749766 7.85433 0 8.11417 0H8.65749C8.91733 0 9 0.0749766 9 0.310614V7.10127C9 9.53262 7.41732 11 4.5 11C1.58268 11 0 9.53262 0 7.10127V0.310614C0 0.0749766 0.0826758 0 0.330707 0H0.885827C1.13386 0 1.21653 0.0749766 1.21653 0.310614V7.11198Z" fill="#4A5D69"/>
</svg>
