<svg width="22" height="20" viewBox="0 0 22 20" fill="none" xmlns="http://www.w3.org/2000/svg">
<g clip-path="url(#clip0_1_1019)">
<path d="M15.5562 1.66675H6.66327C4.20755 1.66675 2.2168 3.53223 2.2168 5.83342V14.1667C2.2168 16.4679 4.20755 18.3334 6.66327 18.3334H15.5562C18.0119 18.3334 20.0027 16.4679 20.0027 14.1667V5.83342C20.0027 3.53223 18.0119 1.66675 15.5562 1.66675Z" stroke="white" stroke-width="2" stroke-linecap="round" stroke-linejoin="round"/>
<path d="M14.6667 9.47501C14.7765 10.1685 14.65 10.8769 14.3054 11.4992C13.9608 12.1215 13.4156 12.6262 12.7473 12.9414C12.079 13.2566 11.3216 13.3663 10.5829 13.2549C9.84417 13.1436 9.16176 12.8167 8.6327 12.321C8.10364 11.8252 7.75487 11.1857 7.636 10.4935C7.51713 9.8013 7.63422 9.09158 7.97061 8.46532C8.30699 7.83905 8.84555 7.32812 9.50967 7.00521C10.1738 6.68229 10.9297 6.56383 11.6698 6.66667C12.4247 6.77158 13.1236 7.10123 13.6633 7.60693C14.203 8.11263 14.5548 8.76757 14.6667 9.47501Z" stroke="white" stroke-width="2" stroke-linecap="round" stroke-linejoin="round"/>
<path d="M16.001 5.41675H16.0106" stroke="white" stroke-width="2" stroke-linecap="round" stroke-linejoin="round"/>
</g>
<defs>
<clipPath id="clip0_1_1019">
<rect width="21.3431" height="20" fill="white" transform="translate(0.438477)"/>
</clipPath>
</defs>
</svg>
