<svg width="249" height="18" viewBox="0 0 249 18" fill="none" xmlns="http://www.w3.org/2000/svg">
<path d="M6.304 1.64C5.216 1.64 4.25067 1.88 3.408 2.36C2.56533 2.84 1.90933 3.512 1.44 4.376C0.970667 5.24 0.736 6.22133 0.736 7.32C0.736 8.41867 0.970667 9.40533 1.44 10.28C1.90933 11.144 2.56533 11.8213 3.408 12.312C4.25067 12.792 5.216 13.032 6.304 13.032C7.392 13.032 8.35733 12.792 9.2 12.312C10.0427 11.8213 10.6987 11.144 11.168 10.28C11.6373 9.416 11.872 8.42933 11.872 7.32C11.872 6.22133 11.6373 5.24 11.168 4.376C10.6987 3.512 10.0427 2.84 9.2 2.36C8.35733 1.88 7.392 1.64 6.304 1.64ZM6.304 2.28C7.296 2.28 8.16 2.49333 8.896 2.92C9.632 3.336 10.1973 3.928 10.592 4.696C10.9867 5.45333 11.184 6.328 11.184 7.32C11.184 8.30133 10.9867 9.176 10.592 9.944C10.1973 10.712 9.62667 11.3147 8.88 11.752C8.144 12.1787 7.28533 12.392 6.304 12.392C5.32267 12.392 4.45867 12.1787 3.712 11.752C2.976 11.3147 2.41067 10.712 2.016 9.944C1.62133 9.176 1.424 8.30133 1.424 7.32C1.424 6.328 1.62133 5.45333 2.016 4.696C2.41067 3.928 2.976 3.336 3.712 2.92C4.448 2.49333 5.312 2.28 6.304 2.28ZM6.368 3.656C7.17867 3.656 7.888 3.896 8.496 4.376C9.11467 4.84533 9.50933 5.49067 9.68 6.312H8.128C7.98933 5.87467 7.75467 5.53333 7.424 5.288C7.09333 5.032 6.71467 4.904 6.288 4.904C5.72267 4.904 5.248 5.11733 4.864 5.544C4.49067 5.96 4.304 6.55733 4.304 7.336C4.304 8.104 4.49067 8.70133 4.864 9.128C5.248 9.544 5.72267 9.752 6.288 9.752C6.71467 9.752 7.09333 9.62933 7.424 9.384C7.75467 9.13867 7.98933 8.792 8.128 8.344H9.68C9.50933 9.176 9.11467 9.832 8.496 10.312C7.888 10.7813 7.17867 11.016 6.368 11.016C5.70667 11.016 5.10933 10.872 4.576 10.584C4.04267 10.2853 3.62133 9.85867 3.312 9.304C3.00267 8.74933 2.848 8.088 2.848 7.32C2.848 6.56267 3.00267 5.90667 3.312 5.352C3.62133 4.79733 4.04267 4.376 4.576 4.088C5.10933 3.8 5.70667 3.656 6.368 3.656ZM24.1994 10.552H19.4314L18.5674 13H16.6154L20.7754 1.88H22.8714L27.0154 13H25.0634L24.1994 10.552ZM23.6874 9.144L21.8154 3.864L19.9434 9.144H23.6874ZM30.1936 1.16V13H28.3696V1.16H30.1936ZM34.2249 1.16V13H32.4009V1.16H34.2249ZM42.0061 5.912C42.3048 5.336 42.7315 4.88267 43.2861 4.552C43.8408 4.21067 44.4808 4.04 45.2061 4.04V6.024H44.6621C43.8621 6.024 43.2168 6.22133 42.7261 6.616C42.2461 7 42.0061 7.64 42.0061 8.536V13H40.1821V4.184H42.0061V5.912ZM46.3168 1.624C46.3168 1.31467 46.4234 1.05867 46.6368 0.855999C46.8501 0.653332 47.1328 0.551999 47.4848 0.551999C47.8368 0.551999 48.1194 0.653332 48.3328 0.855999C48.5568 1.05867 48.6688 1.31467 48.6688 1.624C48.6688 1.93333 48.5568 2.184 48.3328 2.376C48.1194 2.568 47.8368 2.664 47.4848 2.664C47.1328 2.664 46.8501 2.568 46.6368 2.376C46.4234 2.184 46.3168 1.93333 46.3168 1.624ZM48.3968 4.184V13H46.5728V4.184H48.3968ZM54.14 4.072C54.94 4.072 55.6227 4.26933 56.188 4.664C56.7533 5.05867 57.1533 5.58133 57.388 6.232V4.184H59.212V13.096C59.212 13.9173 59.0413 14.6427 58.7 15.272C58.3693 15.912 57.8893 16.4133 57.26 16.776C56.6307 17.1387 55.884 17.32 55.02 17.32C53.7827 17.32 52.78 17.0267 52.012 16.44C51.2547 15.8533 50.78 15.0587 50.588 14.056H52.396C52.5453 14.5787 52.8333 14.984 53.26 15.272C53.6867 15.5707 54.2307 15.72 54.892 15.72C55.6173 15.72 56.2147 15.496 56.684 15.048C57.1533 14.6 57.388 13.9493 57.388 13.096V10.952C57.1533 11.6027 56.7533 12.1253 56.188 12.52C55.6227 12.9147 54.94 13.112 54.14 13.112C53.372 13.112 52.684 12.9307 52.076 12.568C51.4787 12.2053 51.0093 11.6827 50.668 11C50.3267 10.3173 50.156 9.512 50.156 8.584C50.156 7.66667 50.3267 6.86667 50.668 6.184C51.0093 5.50133 51.4787 4.97867 52.076 4.616C52.684 4.25333 53.372 4.072 54.14 4.072ZM54.7 5.672C53.8893 5.672 53.2387 5.93333 52.748 6.456C52.268 6.968 52.028 7.67733 52.028 8.584C52.028 9.49067 52.268 10.2053 52.748 10.728C53.2387 11.24 53.8893 11.496 54.7 11.496C55.212 11.496 55.6707 11.3787 56.076 11.144C56.4813 10.8987 56.8013 10.5573 57.036 10.12C57.2707 9.68267 57.388 9.17067 57.388 8.584C57.388 8.008 57.2707 7.50133 57.036 7.064C56.8013 6.616 56.4813 6.27467 56.076 6.04C55.6707 5.79467 55.212 5.672 54.7 5.672ZM66.3289 4.04C67.3529 4.04 68.1742 4.37067 68.7929 5.032C69.4115 5.69333 69.7209 6.63733 69.7209 7.864V13H67.8969V8.056C67.8969 7.26667 67.6942 6.65867 67.2889 6.232C66.8835 5.79467 66.3289 5.576 65.6249 5.576C64.8995 5.576 64.3182 5.81067 63.8809 6.28C63.4435 6.73867 63.2249 7.416 63.2249 8.312V13H61.4009V1.16H63.2249V6.12C63.4595 5.45867 63.8542 4.94667 64.4089 4.584C64.9635 4.22133 65.6035 4.04 66.3289 4.04ZM76.286 11.416V13H75.166C74.2273 13 73.5127 12.776 73.022 12.328C72.542 11.8693 72.302 11.112 72.302 10.056V5.736H71.038V4.184H72.302V1.992H74.142V4.184H76.27V5.736H74.142V10.088C74.142 10.5893 74.2327 10.936 74.414 11.128C74.606 11.32 74.9367 11.416 75.406 11.416H76.286ZM80.8906 4.072C81.9253 4.072 82.752 4.33867 83.3706 4.872C84 5.39467 84.384 6.09867 84.5226 6.984H82.7946C82.72 6.504 82.512 6.12 82.1706 5.832C81.84 5.53333 81.3973 5.384 80.8426 5.384C80.384 5.384 80.0266 5.496 79.7706 5.72C79.5253 5.93333 79.4026 6.22667 79.4026 6.6C79.4026 6.87733 79.4933 7.10133 79.6746 7.272C79.856 7.44267 80.08 7.576 80.3466 7.672C80.624 7.768 81.0133 7.87467 81.5146 7.992C82.176 8.14133 82.7093 8.296 83.1146 8.456C83.5306 8.616 83.8826 8.872 84.1706 9.224C84.4693 9.56533 84.6186 10.0347 84.6186 10.632C84.6186 11.368 84.336 11.9653 83.7706 12.424C83.216 12.8827 82.464 13.112 81.5146 13.112C80.416 13.112 79.5253 12.856 78.8426 12.344C78.1706 11.832 77.7653 11.1173 77.6266 10.2H79.4026C79.456 10.68 79.6693 11.0693 80.0426 11.368C80.416 11.6667 80.9066 11.816 81.5146 11.816C81.952 11.816 82.2933 11.704 82.5386 11.48C82.7946 11.2453 82.9226 10.952 82.9226 10.6C82.9226 10.2907 82.8266 10.0453 82.6346 9.864C82.4426 9.68267 82.2026 9.544 81.9146 9.448C81.6266 9.34133 81.232 9.23467 80.7306 9.128C80.0906 8.97867 79.568 8.82933 79.1626 8.68C78.768 8.53067 78.4266 8.29067 78.1386 7.96C77.8613 7.61867 77.7226 7.16 77.7226 6.584C77.7226 5.83733 78 5.23467 78.5546 4.776C79.12 4.30667 79.8986 4.072 80.8906 4.072ZM92.0218 5.912C92.3204 5.336 92.7471 4.88267 93.3018 4.552C93.8564 4.21067 94.4964 4.04 95.2218 4.04V6.024H94.6778C93.8778 6.024 93.2324 6.22133 92.7418 6.616C92.2618 7 92.0218 7.64 92.0218 8.536V13H90.1978V4.184H92.0218V5.912ZM104.78 8.168C104.78 8.46667 104.759 8.728 104.716 8.952H97.9324C97.9644 9.85867 98.215 10.5307 98.6844 10.968C99.1537 11.4053 99.735 11.624 100.428 11.624C101.036 11.624 101.548 11.4693 101.964 11.16C102.391 10.8507 102.652 10.44 102.748 9.928H104.7C104.583 10.5467 104.338 11.096 103.964 11.576C103.591 12.056 103.106 12.4347 102.508 12.712C101.911 12.9787 101.244 13.112 100.508 13.112C99.655 13.112 98.8977 12.9307 98.2364 12.568C97.5857 12.2053 97.0737 11.6827 96.7004 11C96.327 10.3173 96.1404 9.512 96.1404 8.584C96.1404 7.66667 96.327 6.86667 96.7004 6.184C97.0737 5.50133 97.5857 4.97867 98.2364 4.616C98.8977 4.25333 99.655 4.072 100.508 4.072C101.372 4.072 102.124 4.25333 102.764 4.616C103.415 4.968 103.911 5.45867 104.252 6.088C104.604 6.70667 104.78 7.4 104.78 8.168ZM102.94 8.12C102.962 7.544 102.86 7.064 102.636 6.68C102.423 6.28533 102.124 5.99733 101.74 5.816C101.367 5.624 100.956 5.528 100.508 5.528C99.7937 5.528 99.1964 5.74667 98.7164 6.184C98.2364 6.62133 97.975 7.26667 97.9324 8.12H102.94ZM109.438 4.072C110.472 4.072 111.299 4.33867 111.918 4.872C112.547 5.39467 112.931 6.09867 113.07 6.984H111.342C111.267 6.504 111.059 6.12 110.718 5.832C110.387 5.53333 109.944 5.384 109.39 5.384C108.931 5.384 108.574 5.496 108.318 5.72C108.072 5.93333 107.95 6.22667 107.95 6.6C107.95 6.87733 108.04 7.10133 108.222 7.272C108.403 7.44267 108.627 7.576 108.894 7.672C109.171 7.768 109.56 7.87467 110.062 7.992C110.723 8.14133 111.256 8.296 111.662 8.456C112.078 8.616 112.43 8.872 112.718 9.224C113.016 9.56533 113.166 10.0347 113.166 10.632C113.166 11.368 112.883 11.9653 112.318 12.424C111.763 12.8827 111.011 13.112 110.062 13.112C108.963 13.112 108.072 12.856 107.39 12.344C106.718 11.832 106.312 11.1173 106.174 10.2H107.95C108.003 10.68 108.216 11.0693 108.59 11.368C108.963 11.6667 109.454 11.816 110.062 11.816C110.499 11.816 110.84 11.704 111.086 11.48C111.342 11.2453 111.47 10.952 111.47 10.6C111.47 10.2907 111.374 10.0453 111.182 9.864C110.99 9.68267 110.75 9.544 110.462 9.448C110.174 9.34133 109.779 9.23467 109.278 9.128C108.638 8.97867 108.115 8.82933 107.71 8.68C107.315 8.53067 106.974 8.29067 106.686 7.96C106.408 7.61867 106.27 7.16 106.27 6.584C106.27 5.83733 106.547 5.23467 107.102 4.776C107.667 4.30667 108.446 4.072 109.438 4.072ZM123.187 8.168C123.187 8.46667 123.165 8.728 123.123 8.952H116.339C116.371 9.85867 116.621 10.5307 117.091 10.968C117.56 11.4053 118.141 11.624 118.835 11.624C119.443 11.624 119.955 11.4693 120.371 11.16C120.797 10.8507 121.059 10.44 121.155 9.928H123.107C122.989 10.5467 122.744 11.096 122.371 11.576C121.997 12.056 121.512 12.4347 120.915 12.712C120.317 12.9787 119.651 13.112 118.915 13.112C118.061 13.112 117.304 12.9307 116.643 12.568C115.992 12.2053 115.48 11.6827 115.107 11C114.733 10.3173 114.547 9.512 114.547 8.584C114.547 7.66667 114.733 6.86667 115.107 6.184C115.48 5.50133 115.992 4.97867 116.643 4.616C117.304 4.25333 118.061 4.072 118.915 4.072C119.779 4.072 120.531 4.25333 121.171 4.616C121.821 4.968 122.317 5.45867 122.659 6.088C123.011 6.70667 123.187 7.4 123.187 8.168ZM121.347 8.12C121.368 7.544 121.267 7.064 121.043 6.68C120.829 6.28533 120.531 5.99733 120.147 5.816C119.773 5.624 119.363 5.528 118.915 5.528C118.2 5.528 117.603 5.74667 117.123 6.184C116.643 6.62133 116.381 7.26667 116.339 8.12H121.347ZM126.772 5.912C127.07 5.336 127.497 4.88267 128.052 4.552C128.606 4.21067 129.246 4.04 129.972 4.04V6.024H129.428C128.628 6.024 127.982 6.22133 127.492 6.616C127.012 7 126.772 7.64 126.772 8.536V13H124.948V4.184H126.772V5.912ZM134.954 11.112L137.45 4.184H139.402L136.042 13H133.834L130.474 4.184H132.426L134.954 11.112ZM148.937 8.168C148.937 8.46667 148.915 8.728 148.873 8.952H142.089C142.121 9.85867 142.371 10.5307 142.841 10.968C143.31 11.4053 143.891 11.624 144.585 11.624C145.193 11.624 145.705 11.4693 146.121 11.16C146.547 10.8507 146.809 10.44 146.905 9.928H148.857C148.739 10.5467 148.494 11.096 148.121 11.576C147.747 12.056 147.262 12.4347 146.665 12.712C146.067 12.9787 145.401 13.112 144.665 13.112C143.811 13.112 143.054 12.9307 142.393 12.568C141.742 12.2053 141.23 11.6827 140.857 11C140.483 10.3173 140.297 9.512 140.297 8.584C140.297 7.66667 140.483 6.86667 140.857 6.184C141.23 5.50133 141.742 4.97867 142.393 4.616C143.054 4.25333 143.811 4.072 144.665 4.072C145.529 4.072 146.281 4.25333 146.921 4.616C147.571 4.968 148.067 5.45867 148.409 6.088C148.761 6.70667 148.937 7.4 148.937 8.168ZM147.097 8.12C147.118 7.544 147.017 7.064 146.793 6.68C146.579 6.28533 146.281 5.99733 145.897 5.816C145.523 5.624 145.113 5.528 144.665 5.528C143.95 5.528 143.353 5.74667 142.873 6.184C142.393 6.62133 142.131 7.26667 142.089 8.12H147.097ZM154.234 4.072C155.034 4.072 155.716 4.26933 156.282 4.664C156.847 5.05867 157.242 5.58133 157.466 6.232V1.16H159.306V13H157.466V10.952C157.242 11.6027 156.847 12.1253 156.282 12.52C155.716 12.9147 155.034 13.112 154.234 13.112C153.466 13.112 152.778 12.9307 152.17 12.568C151.572 12.2053 151.103 11.6827 150.762 11C150.42 10.3173 150.25 9.512 150.25 8.584C150.25 7.66667 150.42 6.86667 150.762 6.184C151.103 5.50133 151.572 4.97867 152.17 4.616C152.778 4.25333 153.466 4.072 154.234 4.072ZM154.794 5.672C153.983 5.672 153.332 5.93333 152.842 6.456C152.362 6.968 152.122 7.67733 152.122 8.584C152.122 9.49067 152.362 10.2053 152.842 10.728C153.332 11.24 153.983 11.496 154.794 11.496C155.306 11.496 155.764 11.3787 156.17 11.144C156.575 10.8987 156.895 10.5573 157.13 10.12C157.364 9.68267 157.482 9.17067 157.482 8.584C157.482 8.008 157.364 7.50133 157.13 7.064C156.895 6.616 156.575 6.27467 156.17 6.04C155.764 5.79467 155.306 5.672 154.794 5.672ZM173.453 6.44V7.976H164.893V6.44H173.453ZM185.729 1.704V3.176H180.881V6.68H184.881V8.088H180.881V13H179.057V1.704H185.729ZM187.098 1.624C187.098 1.31467 187.205 1.05867 187.418 0.855999C187.631 0.653332 187.914 0.551999 188.266 0.551999C188.618 0.551999 188.901 0.653332 189.114 0.855999C189.338 1.05867 189.45 1.31467 189.45 1.624C189.45 1.93333 189.338 2.184 189.114 2.376C188.901 2.568 188.618 2.664 188.266 2.664C187.914 2.664 187.631 2.568 187.418 2.376C187.205 2.184 187.098 1.93333 187.098 1.624ZM189.178 4.184V13H187.354V4.184H189.178ZM196.313 4.04C197.337 4.04 198.159 4.37067 198.777 5.032C199.396 5.69333 199.705 6.63733 199.705 7.864V13H197.881V8.056C197.881 7.26667 197.679 6.65867 197.273 6.232C196.868 5.79467 196.313 5.576 195.609 5.576C194.884 5.576 194.303 5.81067 193.865 6.28C193.428 6.73867 193.209 7.416 193.209 8.312V13H191.385V4.184H193.209V6.12C193.444 5.45867 193.839 4.94667 194.393 4.584C194.948 4.22133 195.588 4.04 196.313 4.04ZM204.734 4.072C205.769 4.072 206.596 4.33867 207.214 4.872C207.844 5.39467 208.228 6.09867 208.366 6.984H206.638C206.564 6.504 206.356 6.12 206.014 5.832C205.684 5.53333 205.241 5.384 204.686 5.384C204.228 5.384 203.87 5.496 203.614 5.72C203.369 5.93333 203.246 6.22667 203.246 6.6C203.246 6.87733 203.337 7.10133 203.518 7.272C203.7 7.44267 203.924 7.576 204.19 7.672C204.468 7.768 204.857 7.87467 205.358 7.992C206.02 8.14133 206.553 8.296 206.958 8.456C207.374 8.616 207.726 8.872 208.014 9.224C208.313 9.56533 208.462 10.0347 208.462 10.632C208.462 11.368 208.18 11.9653 207.614 12.424C207.06 12.8827 206.308 13.112 205.358 13.112C204.26 13.112 203.369 12.856 202.686 12.344C202.014 11.832 201.609 11.1173 201.47 10.2H203.246C203.3 10.68 203.513 11.0693 203.886 11.368C204.26 11.6667 204.75 11.816 205.358 11.816C205.796 11.816 206.137 11.704 206.382 11.48C206.638 11.2453 206.766 10.952 206.766 10.6C206.766 10.2907 206.67 10.0453 206.478 9.864C206.286 9.68267 206.046 9.544 205.758 9.448C205.47 9.34133 205.076 9.23467 204.574 9.128C203.934 8.97867 203.412 8.82933 203.006 8.68C202.612 8.53067 202.27 8.29067 201.982 7.96C201.705 7.61867 201.566 7.16 201.566 6.584C201.566 5.83733 201.844 5.23467 202.398 4.776C202.964 4.30667 203.742 4.072 204.734 4.072ZM222.644 4.184L220.196 13H218.18L216.004 6.184L213.796 13H211.796L209.348 4.184H211.188L212.868 11.32L215.076 4.184H216.996L219.236 11.32L220.916 4.184H222.644ZM232.077 8.168C232.077 8.46667 232.056 8.728 232.013 8.952H225.229C225.261 9.85867 225.512 10.5307 225.981 10.968C226.451 11.4053 227.032 11.624 227.725 11.624C228.333 11.624 228.845 11.4693 229.261 11.16C229.688 10.8507 229.949 10.44 230.045 9.928H231.997C231.88 10.5467 231.635 11.096 231.261 11.576C230.888 12.056 230.403 12.4347 229.805 12.712C229.208 12.9787 228.541 13.112 227.805 13.112C226.952 13.112 226.195 12.9307 225.533 12.568C224.883 12.2053 224.371 11.6827 223.997 11C223.624 10.3173 223.437 9.512 223.437 8.584C223.437 7.66667 223.624 6.86667 223.997 6.184C224.371 5.50133 224.883 4.97867 225.533 4.616C226.195 4.25333 226.952 4.072 227.805 4.072C228.669 4.072 229.421 4.25333 230.061 4.616C230.712 4.968 231.208 5.45867 231.549 6.088C231.901 6.70667 232.077 7.4 232.077 8.168ZM230.237 8.12C230.259 7.544 230.157 7.064 229.933 6.68C229.72 6.28533 229.421 5.99733 229.037 5.816C228.664 5.624 228.253 5.528 227.805 5.528C227.091 5.528 226.493 5.74667 226.013 6.184C225.533 6.62133 225.272 7.26667 225.229 8.12H230.237ZM242.03 8.168C242.03 8.46667 242.009 8.728 241.966 8.952H235.182C235.214 9.85867 235.465 10.5307 235.934 10.968C236.404 11.4053 236.985 11.624 237.678 11.624C238.286 11.624 238.798 11.4693 239.214 11.16C239.641 10.8507 239.902 10.44 239.998 9.928H241.95C241.833 10.5467 241.588 11.096 241.214 11.576C240.841 12.056 240.356 12.4347 239.758 12.712C239.161 12.9787 238.494 13.112 237.758 13.112C236.905 13.112 236.148 12.9307 235.486 12.568C234.836 12.2053 234.324 11.6827 233.95 11C233.577 10.3173 233.39 9.512 233.39 8.584C233.39 7.66667 233.577 6.86667 233.95 6.184C234.324 5.50133 234.836 4.97867 235.486 4.616C236.148 4.25333 236.905 4.072 237.758 4.072C238.622 4.072 239.374 4.25333 240.014 4.616C240.665 4.968 241.161 5.45867 241.502 6.088C241.854 6.70667 242.03 7.4 242.03 8.168ZM240.19 8.12C240.212 7.544 240.11 7.064 239.886 6.68C239.673 6.28533 239.374 5.99733 238.99 5.816C238.617 5.624 238.206 5.528 237.758 5.528C237.044 5.528 236.446 5.74667 235.966 6.184C235.486 6.62133 235.225 7.26667 235.182 8.12H240.19ZM248.224 11.416V13H247.104C246.165 13 245.45 12.776 244.96 12.328C244.48 11.8693 244.24 11.112 244.24 10.056V5.736H242.976V4.184H244.24V1.992H246.08V4.184H248.208V5.736H246.08V10.088C246.08 10.5893 246.17 10.936 246.352 11.128C246.544 11.32 246.874 11.416 247.344 11.416H248.224Z" fill="white"/>
</svg>
