<svg width="22" height="20" viewBox="0 0 22 20" fill="none" xmlns="http://www.w3.org/2000/svg">
<path d="M21.1114 2.50008C20.2598 3.06298 19.3169 3.4935 18.319 3.77508C17.7834 3.198 17.0716 2.78899 16.2798 2.60335C15.4881 2.41771 14.6546 2.46441 13.8921 2.73712C13.1296 3.00984 12.4749 3.49541 12.0165 4.12818C11.5581 4.76094 11.3182 5.51036 11.3291 6.27508V7.10841C9.7663 7.14639 8.21772 6.82159 6.82129 6.16295C5.42486 5.50431 4.22393 4.53228 3.32546 3.33341C3.32546 3.33341 -0.231714 10.8334 7.77194 14.1667C5.94046 15.3317 3.75869 15.9159 1.54688 15.8334C9.55052 20.0001 19.3328 15.8334 19.3328 6.25008C19.3319 6.01796 19.3081 5.78641 19.2616 5.55841C20.1692 4.71966 20.8097 3.66067 21.1114 2.50008Z" fill="white"/>
</svg>
